<?xml version="1.0" standalone="no"?>
<!DOCTYPE svg PUBLIC "-//W3C//DTD SVG 20010904//EN"
 "http://www.w3.org/TR/2001/REC-SVG-20010904/DTD/svg10.dtd">
<svg version="1.0" xmlns="http://www.w3.org/2000/svg"
 width="155.000000pt" height="156.000000pt" viewBox="0 0 155.000000 156.000000"
 preserveAspectRatio="xMidYMid meet">

<g transform="translate(0.000000,156.000000) scale(0.100000,-0.100000)"
fill="#000000" stroke="none">
<path d="M0 780 l0 -780 775 0 775 0 0 780 0 780 -775 0 -775 0 0 -780z m637
208 c-3 -8 -6 -5 -6 6 -1 11 2 17 5 13 3 -3 4 -12 1 -19z m463 -99 c0 -72 -2
-79 -20 -79 -16 0 -20 7 -20 35 0 32 -2 35 -30 35 -28 0 -30 -3 -30 -35 0 -28
-4 -35 -20 -35 -18 0 -20 7 -20 80 0 73 2 80 20 80 16 0 20 -7 20 -30 0 -27 3
-30 30 -30 27 0 30 3 30 34 0 29 3 33 20 29 18 -5 20 -14 20 -84z m-728 6 c20
-41 33 -77 30 -80 -13 -12 -32 -3 -46 23 -8 15 -15 21 -16 13 0 -8 -7 -11 -20
-8 -13 3 -24 -1 -30 -14 -15 -28 -44 -25 -37 4 13 56 53 137 68 137 9 0 29
-29 51 -75z m241 61 c24 -18 21 -52 -5 -71 l-23 -16 28 -20 c15 -12 27 -25 27
-30 0 -18 -42 -8 -65 16 l-25 24 0 -25 c0 -20 -4 -25 -21 -22 -19 3 -21 10
-21 73 0 39 1 73 1 78 2 12 85 7 104 -7z m245 -13 c4 -25 -7 -30 -26 -11 -21
21 -62 -6 -62 -42 0 -34 32 -54 62 -39 24 13 28 11 28 -10 0 -36 -63 -42 -104
-10 -34 27 -36 82 -4 116 18 19 31 23 63 21 33 -2 41 -7 43 -25z m462 13 c0
-10 -13 -16 -37 -18 -41 -3 -59 -28 -20 -28 14 0 27 -7 31 -15 4 -11 -2 -15
-24 -15 -46 0 -39 -28 8 -32 25 -2 37 -8 37 -18 0 -11 -14 -16 -57 -18 l-58
-3 0 81 0 80 60 0 c46 0 60 -3 60 -14z m-488 -178 c-7 -7 -12 -8 -12 -2 0 14
12 26 19 19 2 -3 -1 -11 -7 -17z m-442 2 c8 -5 11 -10 5 -10 -5 0 -17 5 -25
10 -8 5 -10 10 -5 10 6 0 17 -5 25 -10z m150 -126 c0 -10 -6 -13 -19 -9 -26 8
-48 -20 -31 -40 17 -21 29 -19 39 8 8 19 10 20 16 5 11 -29 -2 -48 -33 -48
-35 0 -52 16 -52 50 0 34 17 50 52 50 19 0 28 -5 28 -16z m138 -16 c2 -15 13
-35 25 -43 12 -8 16 -15 10 -15 -6 0 -16 7 -23 15 -20 25 -32 17 -14 -10 16
-25 12 -46 -9 -44 -9 0 -9 2 1 6 16 6 15 23 -2 23 -8 0 -16 7 -20 15 -3 8 -10
15 -17 15 -6 0 -9 -7 -5 -15 3 -9 0 -15 -9 -15 -11 0 -15 13 -15 51 l0 50 38
-3 c32 -3 37 -7 40 -30z m84 -5 c4 -50 32 -53 33 -4 1 50 25 53 25 4 0 -44
-14 -63 -45 -63 -31 0 -45 19 -45 62 0 52 28 53 32 1z m178 22 c19 -23 8 -50
-23 -53 -15 -2 -27 -9 -27 -18 0 -8 -4 -14 -9 -14 -9 0 -20 88 -12 96 10 10
60 3 71 -11z m141 -31 c12 -25 17 -49 13 -52 -3 -4 -9 -1 -11 6 -5 14 -53 17
-53 2 0 -5 -7 -10 -15 -10 -19 0 -19 -2 5 54 12 25 25 46 31 46 6 0 19 -21 30
-46z m-451 -78 c0 -2 -7 -7 -16 -10 -8 -3 -12 -2 -9 4 6 10 25 14 25 6z m400
-6 c0 -5 -2 -10 -4 -10 -3 0 -8 5 -11 10 -3 6 -1 10 4 10 6 0 11 -4 11 -10z"/>
<path d="M316 895 c-8 -22 -8 -22 9 -22 17 0 18 6 6 25 -7 11 -10 10 -15 -3z"/>
<path d="M550 920 c0 -11 6 -20 13 -20 19 0 27 10 20 26 -8 21 -33 17 -33 -6z"/>
<path d="M620 635 c0 -10 7 -15 18 -13 21 4 19 22 -2 26 -10 2 -16 -3 -16 -13z"/>
<path d="M890 635 c0 -8 7 -15 15 -15 8 0 15 4 15 9 0 5 -7 11 -15 15 -9 3
-15 0 -15 -9z"/>
<path d="M1040 620 c0 -5 5 -10 10 -10 6 0 10 5 10 10 0 6 -4 10 -10 10 -5 0
-10 -4 -10 -10z"/>
</g>
</svg>
